<svg width="120" height="41" viewBox="0 0 120 41" fill="none" xmlns="http://www.w3.org/2000/svg">
<mask id="mask0_1_1919" style="mask-type:luminance" maskUnits="userSpaceOnUse" x="0" y="0" width="120" height="41">
<path d="M119.664 0.859863H0V40.8599H119.664V0.859863Z" fill="white"/>
</mask>
<g mask="url(#mask0_1_1919)">
<path d="M110.135 0.859993H9.53468C9.16798 0.859993 8.80568 0.859993 8.43995 0.861993C8.1338 0.863993 7.83009 0.869803 7.521 0.874693C6.84951 0.882595 6.17961 0.94167 5.5171 1.0514C4.85552 1.16353 4.21467 1.37491 3.61622 1.6784C3.0185 1.98446 2.47235 2.38216 1.99757 2.85706C1.5203 3.33063 1.12246 3.87801 0.81935 4.47815C0.5154 5.0771 0.304641 5.71893 0.19435 6.38147C0.0830109 7.04318 0.0230984 7.71251 0.01515 8.38347C0.00587 8.69007 0.00489 8.99769 0 9.30433V32.4186C0.00489 32.7291 0.00587 33.0299 0.01515 33.3405C0.0231008 34.0115 0.0830134 34.6808 0.19435 35.3424C0.304336 36.0054 0.515108 36.6476 0.81935 37.2467C1.12233 37.8449 1.52022 38.3901 1.99757 38.861C2.47054 39.338 3.01705 39.736 3.61622 40.0397C4.21467 40.344 4.85545 40.5567 5.5171 40.6705C6.17972 40.7794 6.84956 40.8385 7.521 40.8473C7.83009 40.8541 8.1338 40.858 8.43995 40.858C8.80567 40.86 9.168 40.86 9.53468 40.86H110.135C110.494 40.86 110.859 40.86 111.219 40.858C111.523 40.858 111.836 40.8541 112.141 40.8473C112.811 40.839 113.479 40.7799 114.141 40.6705C114.804 40.5559 115.448 40.3433 116.049 40.0397C116.647 39.7358 117.193 39.3379 117.666 38.861C118.142 38.3883 118.541 37.8435 118.848 37.2467C119.15 36.6471 119.358 36.005 119.467 35.3424C119.578 34.6807 119.64 34.0115 119.652 33.3405C119.656 33.0299 119.656 32.7291 119.656 32.4186C119.664 32.0553 119.664 31.694 119.664 31.3248V10.3961C119.664 10.0299 119.664 9.66663 119.656 9.30433C119.656 8.99769 119.656 8.69007 119.652 8.38343C119.64 7.71241 119.578 7.04323 119.467 6.38143C119.358 5.71927 119.149 5.07749 118.848 4.47811C118.23 3.27519 117.252 2.29602 116.049 1.67831C115.448 1.37556 114.804 1.16423 114.141 1.05131C113.48 0.941096 112.811 0.882001 112.141 0.874553C111.836 0.869673 111.523 0.863813 111.219 0.861863C110.859 0.859863 110.494 0.859993 110.135 0.859993Z" fill="#A6A6A6"/>
<path d="M8.44487 39.9849C8.14019 39.9849 7.84287 39.981 7.54058 39.9742C6.91436 39.966 6.2896 39.9115 5.67144 39.8111C5.09503 39.7118 4.53664 39.5272 4.0147 39.2632C3.49754 39.0014 3.02585 38.6582 2.6177 38.2466C2.20364 37.8399 1.85891 37.3681 1.59719 36.8501C1.33258 36.3287 1.14945 35.7698 1.05419 35.1929C0.951311 34.573 0.895651 33.9462 0.887687 33.3179C0.881347 33.107 0.873047 32.4048 0.873047 32.4048V9.3042C0.873047 9.3042 0.881887 8.61279 0.887737 8.40966C0.895363 7.78234 0.950699 7.15651 1.05327 6.53759C1.14871 5.95911 1.33197 5.39861 1.59673 4.87549C1.85749 4.3578 2.2003 3.88572 2.61187 3.47754C3.02297 3.06548 3.49617 2.72046 4.01421 2.45507C4.53495 2.19195 5.09228 2.00859 5.66753 1.91113C6.28772 1.8097 6.91465 1.75486 7.54304 1.74707L8.44536 1.73486H111.214L112.127 1.74756C112.75 1.75496 113.371 1.80931 113.985 1.91015C114.566 2.00884 115.13 2.19348 115.656 2.458C116.694 2.99285 117.539 3.83902 118.071 4.87793C118.332 5.39744 118.512 5.95337 118.607 6.52685C118.71 7.15085 118.768 7.7816 118.78 8.41406C118.783 8.69726 118.783 9.00146 118.783 9.3042C118.791 9.6792 118.791 10.0361 118.791 10.396V31.3247C118.791 31.688 118.791 32.0425 118.783 32.3999C118.783 32.7251 118.783 33.023 118.779 33.3296C118.768 33.9508 118.711 34.5703 118.608 35.1831C118.515 35.7642 118.333 36.3274 118.068 36.8531C117.805 37.3655 117.462 37.8332 117.053 38.2388C116.644 38.6526 116.172 38.9978 115.653 39.2613C115.128 39.5273 114.566 39.7126 113.985 39.8111C113.367 39.9121 112.742 39.9666 112.116 39.9742C111.823 39.981 111.517 39.9849 111.219 39.9849L110.135 39.9869L8.44487 39.9849Z" fill="black"/>
<path d="M24.769 21.1611C24.7797 20.3264 25.0014 19.5081 25.4135 18.7821C25.8255 18.0562 26.4145 17.4462 27.1256 17.009C26.6738 16.3639 26.0779 15.8329 25.385 15.4584C24.6922 15.0838 23.9216 14.876 23.1344 14.8514C21.4552 14.6751 19.8272 15.8562 18.9715 15.8562C18.0992 15.8562 16.7817 14.8689 15.363 14.8981C14.4453 14.9277 13.551 15.1946 12.7671 15.6726C11.9832 16.1507 11.3365 16.8236 10.8901 17.6259C8.95608 20.9743 10.3987 25.8954 12.2513 28.602C13.1782 29.9274 14.2615 31.4078 15.6789 31.3553C17.066 31.2978 17.584 30.4708 19.2583 30.4708C20.9171 30.4708 21.4031 31.3553 22.8493 31.3219C24.3377 31.2978 25.2754 29.9907 26.1698 28.6528C26.8358 27.7084 27.3483 26.6647 27.6882 25.5603C26.8235 25.1945 26.0856 24.5824 25.5665 23.8001C25.0474 23.0178 24.77 22.1 24.769 21.1611Z" fill="white"/>
<path d="M22.0373 13.0712C22.8489 12.097 23.2487 10.8448 23.1518 9.58057C21.912 9.71079 20.7668 10.3033 19.9443 11.2402C19.5421 11.6979 19.2341 12.2303 19.0379 12.8071C18.8416 13.3839 18.761 13.9936 18.8006 14.6016C19.4207 14.608 20.0342 14.4736 20.5949 14.2085C21.1555 13.9434 21.6487 13.5545 22.0373 13.0712Z" fill="white"/>
<path d="M42.3025 27.9996H37.5691L36.4324 31.356H34.4275L38.9109 18.938H40.9939L45.4773 31.356H43.4382L42.3025 27.9996ZM38.0593 26.4507H41.8113L39.9617 21.0035H39.91L38.0593 26.4507Z" fill="white"/>
<path d="M55.1599 26.8293C55.1599 29.6427 53.6541 31.4503 51.3816 31.4503C50.806 31.4805 50.2335 31.3479 49.7297 31.0677C49.2259 30.7876 48.8112 30.3712 48.533 29.8663H48.49V34.3507H46.6316V22.3019H48.4305V23.8078H48.4646C48.7556 23.3053 49.1773 22.8911 49.6849 22.6093C50.1926 22.3274 50.7671 22.1885 51.3474 22.2072C53.6453 22.2072 55.1599 24.0236 55.1599 26.8293ZM53.2498 26.8293C53.2498 24.9963 52.3025 23.7912 50.8572 23.7912C49.4373 23.7912 48.4822 25.0216 48.4822 26.8293C48.4822 28.6535 49.4373 29.8752 50.8572 29.8752C52.3025 29.8752 53.2498 28.6789 53.2498 26.8293Z" fill="white"/>
<path d="M65.1248 26.8292C65.1248 29.6427 63.6189 31.4503 61.3465 31.4503C60.7708 31.4804 60.1983 31.3478 59.6945 31.0677C59.1907 30.7876 58.776 30.3712 58.4978 29.8663H58.4548V34.3507H56.5964V22.3019H58.3953V23.8078H58.4294C58.7204 23.3053 59.1421 22.8911 59.6498 22.6093C60.1574 22.3274 60.7319 22.1885 61.3123 22.2072C63.6101 22.2072 65.1248 24.0236 65.1248 26.8292ZM63.2146 26.8292C63.2146 24.9962 62.2674 23.7912 60.822 23.7912C59.4021 23.7912 58.447 25.0216 58.447 26.8292C58.447 28.6535 59.4021 29.8751 60.822 29.8751C62.2674 29.8751 63.2146 28.6789 63.2146 26.8292Z" fill="white"/>
<path d="M71.7107 27.8961C71.8484 29.1275 73.0447 29.9361 74.6795 29.9361C76.2459 29.9361 77.3728 29.1275 77.3728 28.0171C77.3728 27.0533 76.6931 26.4761 75.0838 26.0806L73.4744 25.6929C71.1941 25.1421 70.1355 24.0757 70.1355 22.3453C70.1355 20.2027 72.0027 18.731 74.6541 18.731C77.2781 18.731 79.0769 20.2027 79.1375 22.3453H77.2615C77.1492 21.106 76.1248 20.358 74.6277 20.358C73.1306 20.358 72.1062 21.1148 72.1062 22.2164C72.1062 23.0943 72.7605 23.6109 74.3611 24.0064L75.7292 24.3423C78.2771 24.9448 79.3357 25.9683 79.3357 27.7847C79.3357 30.1079 77.4851 31.563 74.5417 31.563C71.7878 31.563 69.9285 30.1421 69.8083 27.896L71.7107 27.8961Z" fill="white"/>
<path d="M83.3464 20.1597V22.3023H85.0681V23.774H83.3464V28.7652C83.3464 29.5406 83.6912 29.9019 84.448 29.9019C84.6524 29.8983 84.8564 29.884 85.0593 29.8589V31.3218C84.719 31.3854 84.3732 31.4142 84.0271 31.4077C82.1941 31.4077 81.4792 30.7192 81.4792 28.9634V23.774H80.1628V22.3023H81.4792V20.1597H83.3464Z" fill="white"/>
<path d="M86.0652 26.8295C86.0652 23.9809 87.7429 22.1909 90.3591 22.1909C92.9841 22.1909 94.6541 23.9809 94.6541 26.8295C94.6541 29.686 92.9929 31.4682 90.3591 31.4682C87.7263 31.4682 86.0652 29.686 86.0652 26.8295ZM92.7605 26.8295C92.7605 24.8754 91.865 23.7221 90.3591 23.7221C88.8533 23.7221 87.9587 24.8842 87.9587 26.8295C87.9587 28.7914 88.8533 29.936 90.3591 29.936C91.865 29.936 92.7605 28.7914 92.7605 26.8295Z" fill="white"/>
<path d="M96.1863 22.3018H97.9587V23.8428H98.0017C98.1217 23.3615 98.4036 22.9362 98.8002 22.6383C99.1968 22.3404 99.6838 22.1882 100.179 22.2071C100.394 22.2063 100.607 22.2296 100.816 22.2764V24.0147C100.546 23.9321 100.264 23.8941 99.9812 23.9024C99.7112 23.8914 99.4421 23.939 99.1922 24.0419C98.9424 24.1448 98.7178 24.3006 98.5338 24.4984C98.3498 24.6963 98.2108 24.9317 98.1264 25.1884C98.042 25.445 98.0141 25.7169 98.0447 25.9854V31.3555H96.1863V22.3018Z" fill="white"/>
<path d="M109.385 28.6967C109.135 30.3403 107.534 31.4682 105.486 31.4682C102.852 31.4682 101.218 29.7035 101.218 26.8725C101.218 24.0327 102.861 22.1909 105.408 22.1909C107.913 22.1909 109.488 23.9116 109.488 26.6567V27.2934H103.094V27.4057C103.064 27.7389 103.106 28.0746 103.216 28.3904C103.326 28.7062 103.502 28.995 103.733 29.2376C103.963 29.4801 104.242 29.6709 104.552 29.7972C104.862 29.9235 105.195 29.9824 105.529 29.9701C105.968 30.0113 106.409 29.9096 106.786 29.6801C107.162 29.4507 107.455 29.1058 107.62 28.6967H109.385ZM103.102 25.9946H107.629C107.645 25.695 107.6 25.3952 107.495 25.1139C107.391 24.8327 107.229 24.5762 107.02 24.3604C106.812 24.1447 106.561 23.9743 106.284 23.8601C106.006 23.7459 105.708 23.6903 105.408 23.6967C105.105 23.6949 104.805 23.7531 104.525 23.8678C104.245 23.9825 103.991 24.1516 103.776 24.3652C103.562 24.5789 103.392 24.8328 103.276 25.1125C103.161 25.3921 103.102 25.6919 103.102 25.9946Z" fill="white"/>
<path d="M37.8262 9.59124C38.2158 9.56328 38.6067 9.62214 38.9709 9.76357C39.335 9.90501 39.6632 10.1255 39.9317 10.4091C40.2003 10.6927 40.4026 11.0325 40.524 11.4037C40.6454 11.775 40.6829 12.1686 40.6338 12.5561C40.6338 14.4624 39.6035 15.5581 37.8262 15.5581H35.6709V9.59124H37.8262ZM36.5976 14.7143H37.7226C38.0011 14.7309 38.2797 14.6853 38.5382 14.5807C38.7967 14.476 39.0287 14.3151 39.2172 14.1095C39.4057 13.904 39.546 13.659 39.6278 13.3923C39.7097 13.1257 39.7311 12.8442 39.6904 12.5683C39.7281 12.2934 39.7046 12.0137 39.6215 11.749C39.5383 11.4843 39.3977 11.2413 39.2096 11.0374C39.0216 10.8334 38.7907 10.6736 38.5337 10.5694C38.2766 10.4652 37.9996 10.4191 37.7226 10.4345H36.5976V14.7143Z" fill="white"/>
<path d="M41.6807 13.3047C41.6524 13.0088 41.6862 12.7102 41.7801 12.4281C41.8739 12.1461 42.0257 11.8867 42.2256 11.6667C42.4256 11.4467 42.6693 11.271 42.9411 11.1507C43.213 11.0304 43.507 10.9683 43.8042 10.9683C44.1015 10.9683 44.3955 11.0304 44.6673 11.1507C44.9392 11.271 45.1829 11.4467 45.3828 11.6667C45.5828 11.8867 45.7345 12.1461 45.8284 12.4281C45.9222 12.7102 45.9561 13.0088 45.9278 13.3047C45.9566 13.6009 45.9232 13.8999 45.8296 14.1824C45.736 14.4649 45.5843 14.7247 45.3843 14.9452C45.1843 15.1656 44.9404 15.3417 44.6683 15.4622C44.3962 15.5828 44.1019 15.645 43.8042 15.645C43.5066 15.645 43.2123 15.5828 42.9402 15.4622C42.668 15.3417 42.4241 15.1656 42.2241 14.9452C42.0242 14.7247 41.8725 14.4649 41.7789 14.1824C41.6853 13.8999 41.6519 13.6009 41.6807 13.3047ZM45.0137 13.3047C45.0137 12.3286 44.5752 11.7578 43.8057 11.7578C43.0332 11.7578 42.5987 12.3286 42.5987 13.3047C42.5987 14.2886 43.0333 14.855 43.8057 14.855C44.5752 14.855 45.0137 14.2847 45.0137 13.3047Z" fill="white"/>
<path d="M51.5732 15.5581H50.6514L49.7207 12.2417H49.6504L48.7236 15.5581H47.8105L46.5693 11.0552H47.4707L48.2773 14.4912H48.3438L49.2695 11.0552H50.1221L51.0479 14.4912H51.1182L51.9209 11.0552H52.8096L51.5732 15.5581Z" fill="white"/>
<path d="M53.8535 11.0548H54.709V11.7701H54.7754C54.888 11.5132 55.0781 11.2978 55.3189 11.154C55.5598 11.0102 55.8395 10.9451 56.1191 10.9678C56.3382 10.9514 56.5582 10.9844 56.7628 11.0645C56.9674 11.1446 57.1514 11.2697 57.3011 11.4306C57.4508 11.5914 57.5623 11.7839 57.6275 11.9937C57.6927 12.2035 57.7099 12.4253 57.6777 12.6426V15.5576H56.7891V12.8658C56.7891 12.1422 56.4746 11.7823 55.8174 11.7823C55.6686 11.7754 55.5201 11.8007 55.3821 11.8565C55.244 11.9124 55.1197 11.9974 55.0175 12.1058C54.9154 12.2142 54.8379 12.3433 54.7904 12.4845C54.7429 12.6256 54.7264 12.7753 54.7422 12.9234V15.5577H53.8535V11.0548Z" fill="white"/>
<path d="M59.0938 9.29736H59.9824V15.5581H59.0938V9.29736Z" fill="white"/>
<path d="M61.2178 13.3048C61.1895 13.0088 61.2234 12.7102 61.3172 12.4282C61.4111 12.1461 61.5629 11.8867 61.7628 11.6667C61.9628 11.4468 62.2065 11.271 62.4784 11.1507C62.7503 11.0304 63.0443 10.9683 63.3416 10.9683C63.6389 10.9683 63.9329 11.0304 64.2047 11.1507C64.4766 11.271 64.7203 11.4468 64.9203 11.6667C65.1203 11.8867 65.272 12.1461 65.3659 12.4282C65.4598 12.7102 65.4936 13.0088 65.4653 13.3048C65.4942 13.601 65.4607 13.9 65.3671 14.1825C65.2734 14.465 65.1217 14.7248 64.9217 14.9452C64.7217 15.1657 64.4778 15.3418 64.2057 15.4623C63.9335 15.5828 63.6392 15.6451 63.3416 15.6451C63.0439 15.6451 62.7496 15.5828 62.4775 15.4623C62.2053 15.3418 61.9614 15.1657 61.7614 14.9452C61.5614 14.7248 61.4097 14.465 61.3161 14.1825C61.2225 13.9 61.189 13.601 61.2178 13.3048ZM64.5508 13.3048C64.5508 12.3287 64.1123 11.7579 63.3428 11.7579C62.5703 11.7579 62.1358 12.3287 62.1358 13.3048C62.1358 14.2887 62.5704 14.8551 63.3428 14.8551C64.1123 14.8551 64.5508 14.2847 64.5508 13.3048Z" fill="white"/>
<path d="M66.4009 14.2847C66.4009 13.4741 67.0044 13.0069 68.0757 12.9405L69.2954 12.8701V12.4815C69.2954 12.0059 68.981 11.7373 68.3735 11.7373C67.8774 11.7373 67.5337 11.9195 67.4351 12.2378H66.5747C66.6655 11.4644 67.3931 10.9683 68.4146 10.9683C69.5435 10.9683 70.1802 11.5303 70.1802 12.4815V15.5581H69.3247V14.9253H69.2544C69.1117 15.1523 68.9113 15.3374 68.6737 15.4616C68.436 15.5858 68.1697 15.6447 67.9019 15.6323C67.7128 15.652 67.5218 15.6318 67.341 15.5731C67.1602 15.5144 66.9938 15.4185 66.8524 15.2915C66.711 15.1646 66.5977 15.0094 66.52 14.836C66.4422 14.6625 66.4016 14.4748 66.4009 14.2847ZM69.2954 13.8999V13.5235L68.1958 13.5938C67.5757 13.6353 67.2944 13.8462 67.2944 14.2432C67.2944 14.6485 67.646 14.8843 68.1294 14.8843C68.2711 14.8986 68.4142 14.8843 68.5502 14.8422C68.6862 14.8002 68.8123 14.7311 68.9211 14.6393C69.0299 14.5475 69.1191 14.4347 69.1834 14.3076C69.2477 14.1806 69.2858 14.042 69.2954 13.8999Z" fill="white"/>
<path d="M71.3481 13.3047C71.3481 11.8819 72.0796 10.9805 73.2173 10.9805C73.4987 10.9676 73.778 11.035 74.0225 11.1749C74.267 11.3147 74.4667 11.5214 74.5981 11.7705H74.6646V9.29736H75.5532V15.5581H74.7017V14.8467H74.6314C74.4897 15.0942 74.2831 15.2982 74.0339 15.4367C73.7846 15.5752 73.5022 15.6429 73.2173 15.6323C72.0718 15.6324 71.3481 14.731 71.3481 13.3047ZM72.2661 13.3047C72.2661 14.2598 72.7163 14.8345 73.4693 14.8345C74.2183 14.8345 74.6812 14.2515 74.6812 13.3086C74.6812 12.3702 74.2134 11.7789 73.4693 11.7789C72.7212 11.7789 72.2661 12.3575 72.2661 13.3047Z" fill="white"/>
<path d="M79.23 13.3047C79.2017 13.0088 79.2356 12.7102 79.3294 12.4281C79.4232 12.1461 79.575 11.8867 79.7749 11.6667C79.9749 11.4467 80.2186 11.271 80.4904 11.1507C80.7623 11.0304 81.0563 10.9683 81.3536 10.9683C81.6508 10.9683 81.9448 11.0304 82.2167 11.1507C82.4885 11.271 82.7322 11.4467 82.9322 11.6667C83.1321 11.8867 83.2839 12.1461 83.3777 12.4281C83.4715 12.7102 83.5054 13.0088 83.4771 13.3047C83.5059 13.6009 83.4725 13.8999 83.3789 14.1824C83.2853 14.4649 83.1336 14.7247 82.9336 14.9452C82.7336 15.1656 82.4897 15.3417 82.2176 15.4622C81.9455 15.5828 81.6512 15.645 81.3536 15.645C81.0559 15.645 80.7616 15.5828 80.4895 15.4622C80.2173 15.3417 79.9735 15.1656 79.7735 14.9452C79.5735 14.7247 79.4218 14.4649 79.3282 14.1824C79.2346 13.8999 79.2012 13.6009 79.23 13.3047ZM82.563 13.3047C82.563 12.3286 82.1245 11.7578 81.355 11.7578C80.5826 11.7578 80.148 12.3286 80.148 13.3047C80.148 14.2886 80.5826 14.855 81.355 14.855C82.1245 14.855 82.563 14.2847 82.563 13.3047Z" fill="white"/>
<path d="M84.6694 11.0548H85.5249V11.7701H85.5913C85.704 11.5132 85.894 11.2978 86.1348 11.154C86.3757 11.0102 86.6555 10.9451 86.9351 10.9678C87.1542 10.9514 87.3742 10.9844 87.5788 11.0645C87.7834 11.1446 87.9673 11.2697 88.117 11.4306C88.2667 11.5914 88.3783 11.7839 88.4435 11.9937C88.5087 12.2035 88.5258 12.4253 88.4937 12.6426V15.5576H87.605V12.8658C87.605 12.1422 87.2905 11.7823 86.6333 11.7823C86.4846 11.7754 86.336 11.8007 86.198 11.8565C86.0599 11.9124 85.9356 11.9974 85.8335 12.1058C85.7313 12.2142 85.6539 12.3433 85.6063 12.4845C85.5588 12.6256 85.5423 12.7753 85.5581 12.9234V15.5577H84.6694V11.0548Z" fill="white"/>
<path d="M93.5151 9.93408V11.0757H94.4907V11.8243H93.5151V14.1397C93.5151 14.6114 93.7095 14.8179 94.1519 14.8179C94.2651 14.8175 94.3783 14.8107 94.4907 14.7974V15.5376C94.3311 15.5662 94.1694 15.5814 94.0073 15.583C93.019 15.583 92.6255 15.2354 92.6255 14.3672V11.8242H91.9106V11.0757H92.6255V9.93408H93.5151Z" fill="white"/>
<path d="M95.7046 9.29736H96.5854V11.7789H96.6558C96.7739 11.5195 96.9691 11.3029 97.2148 11.1586C97.4605 11.0142 97.7447 10.9492 98.0288 10.9722C98.2467 10.9603 98.4646 10.9967 98.6669 11.0788C98.8692 11.1608 99.0508 11.2865 99.199 11.4468C99.3471 11.6072 99.458 11.7982 99.5238 12.0064C99.5896 12.2145 99.6086 12.4346 99.5795 12.6509V15.5581H98.69V12.8702C98.69 12.1509 98.355 11.7867 97.7271 11.7867C97.5743 11.7741 97.4207 11.7951 97.2769 11.8482C97.1332 11.9012 97.0027 11.9851 96.8947 12.0938C96.7867 12.2025 96.7038 12.3336 96.6517 12.4777C96.5997 12.6218 96.5797 12.7756 96.5933 12.9282V15.5581H95.7046V9.29736Z" fill="white"/>
<path d="M104.761 14.3423C104.64 14.7538 104.379 15.1098 104.022 15.348C103.665 15.5861 103.236 15.6913 102.81 15.645C102.513 15.6529 102.218 15.596 101.946 15.4785C101.673 15.361 101.43 15.1856 101.232 14.9644C101.034 14.7433 100.887 14.4817 100.8 14.1979C100.713 13.9141 100.689 13.6148 100.73 13.3208C100.69 13.0259 100.715 12.726 100.801 12.4413C100.888 12.1567 101.034 11.8939 101.231 11.6708C101.428 11.4477 101.671 11.2696 101.942 11.1484C102.214 11.0272 102.509 10.9657 102.806 10.9683C104.059 10.9683 104.815 11.8243 104.815 13.2383V13.5484H101.635V13.5982C101.621 13.7634 101.642 13.9297 101.696 14.0865C101.75 14.2432 101.837 14.3869 101.949 14.5084C102.062 14.6299 102.199 14.7264 102.352 14.7918C102.504 14.8572 102.669 14.89 102.834 14.8882C103.047 14.9137 103.262 14.8754 103.453 14.7782C103.644 14.681 103.801 14.5292 103.906 14.3423H104.761ZM101.635 12.8911H103.91C103.921 12.74 103.9 12.5882 103.849 12.4455C103.798 12.3028 103.718 12.1723 103.614 12.0624C103.509 11.9526 103.383 11.8658 103.243 11.8076C103.103 11.7494 102.953 11.7212 102.801 11.7246C102.647 11.7227 102.495 11.7516 102.353 11.8095C102.21 11.8674 102.081 11.9533 101.972 12.062C101.864 12.1707 101.778 12.3001 101.72 12.4425C101.662 12.5849 101.633 12.7374 101.635 12.8911Z" fill="white"/>
</g>
</svg>
