<svg width="109" height="110" viewBox="0 0 109 110" fill="none" xmlns="http://www.w3.org/2000/svg">
<g filter="url(#filter0_d_1_2042)">
<g clip-path="url(#clip0_1_2042)">
<rect x="25" y="10.46" width="29" height="29" rx="14.5" fill="white" fill-opacity="0.01" shape-rendering="crispEdges"/>
<path d="M39.5 38.46C46.9558 38.46 53 32.4158 53 24.96C53 17.5041 46.9558 11.46 39.5 11.46C32.0442 11.46 26 17.5041 26 24.96C26 32.4158 32.0442 38.46 39.5 38.46Z" fill="#EFF1FF" stroke="#40196D" stroke-width="0.5"/>
<path fill-rule="evenodd" clip-rule="evenodd" d="M37.5461 25.5441V31.3248H40.4162V25.5715H42.3755L42.8499 23.173H40.4368V21.4136C40.4368 21.1706 40.5691 20.8459 40.971 20.8459H42.3657V18.4033H39.7614C38.8625 18.4033 37.5362 19.4875 37.5362 20.6404V23.1047H36.0303V25.534L37.5461 25.5441Z" fill="#40196D"/>
</g>
</g>
<defs>
<filter id="filter0_d_1_2042" x="0" y="0.459961" width="109" height="109" filterUnits="userSpaceOnUse" color-interpolation-filters="sRGB">
<feFlood flood-opacity="0" result="BackgroundImageFix"/>
<feColorMatrix in="SourceAlpha" type="matrix" values="0 0 0 0 0 0 0 0 0 0 0 0 0 0 0 0 0 0 127 0" result="hardAlpha"/>
<feOffset dx="15" dy="30"/>
<feGaussianBlur stdDeviation="20"/>
<feComposite in2="hardAlpha" operator="out"/>
<feColorMatrix type="matrix" values="0 0 0 0 0.25098 0 0 0 0 0.0980392 0 0 0 0 0.427451 0 0 0 0.07 0"/>
<feBlend mode="normal" in2="BackgroundImageFix" result="effect1_dropShadow_1_2042"/>
<feBlend mode="normal" in="SourceGraphic" in2="effect1_dropShadow_1_2042" result="shape"/>
</filter>
<clipPath id="clip0_1_2042">
<rect x="25" y="10.46" width="29" height="29" rx="14.5" fill="white"/>
</clipPath>
</defs>
</svg>
