<svg width="65" height="42" viewBox="0 0 65 42" fill="none" xmlns="http://www.w3.org/2000/svg">
<path opacity="0.3" d="M50 35C58.2843 35 65 28.2843 65 20C65 11.7157 58.2843 5 50 5C41.7157 5 35 11.7157 35 20C35 28.2843 41.7157 35 50 35Z" fill="#008751"/>
<mask id="mask0_1_2155" style="mask-type:alpha" maskUnits="userSpaceOnUse" x="41" y="12" width="18" height="16">
<path d="M55.0865 12.2971H44.9141C43.2572 12.2971 41.9141 13.6403 41.9141 15.2971V24.6994C41.9141 26.3563 43.2572 27.6994 44.9141 27.6994H55.0865C56.7433 27.6994 58.0865 26.3563 58.0865 24.6994V15.2971C58.0865 13.6403 56.7433 12.2971 55.0865 12.2971Z" fill="#E94D1E"/>
</mask>
<g mask="url(#mask0_1_2155)">
<path d="M35.3242 9.1355H64.5134V31.0274H35.3242V9.1355Z" fill="#008751"/>
<path d="M46.1875 9.05444H54.2956V30.9463H46.1875V9.05444Z" fill="white"/>
</g>
</svg>
