<svg width="135" height="41" viewBox="0 0 135 41" fill="none" xmlns="http://www.w3.org/2000/svg">
<path d="M130 0.859863H5C2.23858 0.859863 0 3.09844 0 5.85986V35.8599C0 38.6213 2.23858 40.8599 5 40.8599H130C132.761 40.8599 135 38.6213 135 35.8599V5.85986C135 3.09844 132.761 0.859863 130 0.859863Z" fill="black"/>
<path d="M130 1.65986C131.114 1.65986 132.182 2.10236 132.97 2.89001C133.758 3.67766 134.2 4.74595 134.2 5.85986V35.8599C134.2 36.9738 133.758 38.0421 132.97 38.8297C132.182 39.6174 131.114 40.0599 130 40.0599H5C3.88609 40.0599 2.8178 39.6174 2.03015 38.8297C1.2425 38.0421 0.8 36.9738 0.8 35.8599V5.85986C0.8 4.74595 1.2425 3.67766 2.03015 2.89001C2.8178 2.10236 3.88609 1.65986 5 1.65986H130ZM130 0.859863H5C3.67392 0.859863 2.40215 1.38665 1.46447 2.32433C0.526784 3.26201 0 4.53378 0 5.85986V35.8599C0 37.186 0.526784 38.4578 1.46447 39.3954C2.40215 40.3331 3.67392 40.8599 5 40.8599H130C131.326 40.8599 132.598 40.3331 133.536 39.3954C134.473 38.4578 135 37.186 135 35.8599V5.85986C135 4.53378 134.473 3.26201 133.536 2.32433C132.598 1.38665 131.326 0.859863 130 0.859863Z" fill="#A6A6A6"/>
<path d="M47.4201 11.0999C47.4365 11.4666 47.3785 11.8329 47.2496 12.1766C47.1208 12.5203 46.9236 12.8344 46.6701 13.0999C46.386 13.3932 46.0432 13.6232 45.6641 13.7748C45.285 13.9265 44.8781 13.9963 44.4701 13.9799C44.0598 13.989 43.6519 13.9139 43.2718 13.7591C42.8916 13.6043 42.5473 13.3731 42.2601 13.0799C41.9638 12.7924 41.7301 12.4468 41.5735 12.0648C41.4169 11.6828 41.3409 11.2726 41.3501 10.8598C41.3395 10.4454 41.4149 10.0333 41.5715 9.6495C41.7281 9.26569 41.9626 8.9185 42.2601 8.62983C42.7056 8.19452 43.2698 7.90057 43.8819 7.78492C44.4939 7.66928 45.1265 7.73709 45.7001 7.97983C46.0607 8.12807 46.3823 8.35732 46.6401 8.64983L46.1101 9.17983C45.9115 8.94061 45.6599 8.75097 45.3752 8.62599C45.0905 8.501 44.7806 8.44411 44.4701 8.45983C44.1578 8.4583 43.8483 8.51986 43.5603 8.64082C43.2723 8.76179 43.0117 8.93966 42.7941 9.16377C42.5766 9.38789 42.4065 9.65364 42.2941 9.94508C42.1817 10.2365 42.1293 10.5477 42.1401 10.8598C42.1336 11.326 42.2652 11.7836 42.5184 12.175C42.7717 12.5664 43.1352 12.8741 43.563 13.0591C43.9909 13.2442 44.464 13.2984 44.9227 13.2149C45.3813 13.1314 45.8049 12.9139 46.1401 12.5899C46.4485 12.2559 46.6291 11.8239 46.6501 11.3699H44.4701V10.6498H47.3801C47.4025 10.7989 47.4158 10.9492 47.4201 11.0999Z" fill="white" stroke="white" stroke-width="0.2" stroke-miterlimit="10"/>
<path d="M52 8.59986H49.3V10.4999H51.76V11.2199H49.3V13.1199H52V13.8599H48.52V7.85986H52V8.59986Z" fill="white" stroke="white" stroke-width="0.2" stroke-miterlimit="10"/>
<path d="M55.2801 13.8599H54.5101V8.59986H52.8301V7.85986H57.0001V8.59986H55.2801V13.8599Z" fill="white" stroke="white" stroke-width="0.2" stroke-miterlimit="10"/>
<path d="M59.9399 13.8599V7.85986H60.7099V13.8599H59.9399Z" fill="white" stroke="white" stroke-width="0.2" stroke-miterlimit="10"/>
<path d="M64.1299 13.8599H63.3599V8.59986H61.6799V7.85986H65.7999V8.59986H64.1299V13.8599Z" fill="white" stroke="white" stroke-width="0.2" stroke-miterlimit="10"/>
<path d="M73.6099 13.08C73.3211 13.3691 72.9781 13.5984 72.6006 13.7549C72.2231 13.9113 71.8185 13.9918 71.4099 13.9918C71.0013 13.9918 70.5967 13.9113 70.2192 13.7549C69.8417 13.5984 69.4987 13.3691 69.2099 13.08C68.919 12.79 68.6909 12.4433 68.5395 12.0614C68.3881 11.6795 68.3168 11.2706 68.3299 10.86C68.3168 10.4494 68.3881 10.0405 68.5395 9.65868C68.6909 9.27681 68.919 8.93009 69.2099 8.64001C69.4925 8.34281 69.8343 8.10825 70.2133 7.95149C70.5923 7.79474 70.9999 7.71928 71.4099 7.73001C71.8193 7.72354 72.2257 7.80093 72.604 7.95743C72.9824 8.11394 73.3247 8.34623 73.6099 8.64001C73.8974 8.9325 74.1235 9.27965 74.2746 9.66094C74.4257 10.0422 74.499 10.4499 74.4899 10.86C74.503 11.2706 74.4317 11.6795 74.2803 12.0614C74.1289 12.4433 73.9008 12.79 73.6099 13.08ZM69.7799 12.58C69.9929 12.7959 70.2467 12.9673 70.5265 13.0843C70.8063 13.2013 71.1066 13.2616 71.4099 13.2616C71.7132 13.2616 72.0135 13.2013 72.2933 13.0843C72.5731 12.9673 72.8269 12.7959 73.0399 12.58C73.2614 12.3531 73.4349 12.0838 73.55 11.7883C73.6652 11.4927 73.7195 11.177 73.7099 10.86C73.7143 10.5402 73.6536 10.2228 73.5316 9.92708C73.4095 9.63141 73.2286 9.36363 72.9999 9.14001C72.7869 8.92414 72.5331 8.75273 72.2533 8.63573C71.9735 8.51874 71.6732 8.45849 71.3699 8.45849C71.0666 8.45849 70.7663 8.51874 70.4865 8.63573C70.2067 8.75273 69.9529 8.92414 69.7399 9.14001C69.5256 9.37025 69.3594 9.64102 69.2512 9.9364C69.143 10.2318 69.095 10.5458 69.1099 10.86C69.1003 11.177 69.1546 11.4927 69.2698 11.7883C69.3849 12.0838 69.5584 12.3531 69.7799 12.58Z" fill="white" stroke="white" stroke-width="0.2" stroke-miterlimit="10"/>
<path d="M75.5801 13.8599V7.85986H76.5101L79.4301 12.5299V11.3699V7.85986H80.2001V13.8599H79.4001L76.3501 8.96986V10.1199V13.8599H75.5801Z" fill="white" stroke="white" stroke-width="0.2" stroke-miterlimit="10"/>
<path d="M68.1401 22.6098C67.2976 22.6118 66.4745 22.8636 65.7751 23.3333C65.0756 23.8031 64.5312 24.4697 64.2106 25.2488C63.89 26.028 63.8076 26.8847 63.9739 27.7107C64.1402 28.5367 64.5477 29.2948 65.1449 29.8891C65.7421 30.4835 66.5021 30.8875 67.3288 31.0499C68.1556 31.2123 69.0119 31.126 69.7896 30.8017C70.5672 30.4774 71.2313 29.9299 71.6977 29.2282C72.1642 28.5266 72.4121 27.7024 72.4101 26.8598C72.4183 26.2978 72.3132 25.7398 72.1013 25.2192C71.8893 24.6985 71.5748 24.2259 71.1764 23.8293C70.7779 23.4328 70.3038 23.1205 69.7822 22.9109C69.2606 22.7014 68.7021 22.599 68.1401 22.6098ZM68.1401 29.4398C67.6237 29.4759 67.1083 29.3559 66.6611 29.0952C66.2138 28.8346 65.8553 28.4454 65.6321 27.9783C65.409 27.5111 65.3315 26.9877 65.4098 26.476C65.4881 25.9642 65.7185 25.4879 66.0711 25.1089C66.4237 24.7298 66.8821 24.4656 67.3869 24.3506C67.8916 24.2356 68.4193 24.2751 68.9013 24.4639C69.3833 24.6528 69.7973 24.9822 70.0896 25.4095C70.3819 25.8368 70.5388 26.3421 70.5401 26.8598C70.5562 27.1878 70.5065 27.5158 70.3938 27.8242C70.2812 28.1327 70.1079 28.4155 69.8842 28.656C69.6606 28.8965 69.391 29.0897 69.0914 29.2243C68.7919 29.3589 68.4684 29.4322 68.1401 29.4398ZM58.8201 22.6098C57.9776 22.6118 57.1545 22.8636 56.4551 23.3333C55.7556 23.8031 55.2112 24.4697 54.8906 25.2488C54.57 26.028 54.4876 26.8847 54.6539 27.7107C54.8202 28.5367 55.2277 29.2948 55.8249 29.8891C56.4221 30.4835 57.1821 30.8875 58.0088 31.0499C58.8356 31.2123 59.6919 31.126 60.4696 30.8017C61.2472 30.4774 61.9113 29.9299 62.3777 29.2282C62.8442 28.5266 63.0921 27.7024 63.0901 26.8598C63.0983 26.2978 62.9932 25.7398 62.7813 25.2192C62.5693 24.6985 62.2548 24.2259 61.8564 23.8293C61.4579 23.4328 60.9838 23.1205 60.4622 22.9109C59.9406 22.7014 59.3821 22.599 58.8201 22.6098ZM58.8201 29.4398C58.3037 29.4759 57.7883 29.3559 57.3411 29.0952C56.8938 28.8346 56.5353 28.4454 56.3121 27.9783C56.089 27.5111 56.0115 26.9877 56.0898 26.476C56.1681 25.9642 56.3985 25.4879 56.7511 25.1089C57.1037 24.7298 57.5621 24.4656 58.0669 24.3506C58.5716 24.2356 59.0993 24.2751 59.5813 24.4639C60.0633 24.6528 60.4773 24.9822 60.7696 25.4095C61.0619 25.8368 61.2188 26.3421 61.2201 26.8598C61.2362 27.1878 61.1865 27.5158 61.0738 27.8242C60.9612 28.1327 60.7879 28.4155 60.5642 28.656C60.3406 28.8965 60.071 29.0897 59.7714 29.2243C59.4719 29.3589 59.1484 29.4322 58.8201 29.4398ZM47.7401 23.9198V25.7198H52.0601C51.9924 26.5676 51.6399 27.3676 51.0601 27.9898C50.6268 28.4313 50.1056 28.777 49.5302 29.0043C48.9549 29.2317 48.3382 29.3358 47.7201 29.3098C46.4471 29.3098 45.2262 28.8041 44.326 27.9039C43.4258 27.0038 42.9201 25.7829 42.9201 24.5098C42.9201 23.2368 43.4258 22.0159 44.326 21.1157C45.2262 20.2155 46.4471 19.7098 47.7201 19.7098C48.9405 19.6917 50.119 20.1551 51.0001 20.9998L52.2701 19.7298C51.6741 19.1403 50.9664 18.6757 50.1886 18.3632C49.4107 18.0507 48.5783 17.8965 47.7401 17.9098C46.8511 17.8752 45.9643 18.0204 45.1327 18.3368C44.3012 18.6531 43.5421 19.1341 42.9009 19.7508C42.2596 20.3676 41.7495 21.1074 41.4011 21.926C41.0527 22.7446 40.873 23.6251 40.873 24.5148C40.873 25.4045 41.0527 26.285 41.4011 27.1036C41.7495 27.9222 42.2596 28.6621 42.9009 29.2788C43.5421 29.8956 44.3012 30.3765 45.1327 30.6929C45.9643 31.0092 46.8511 31.1544 47.7401 31.1198C48.5955 31.154 49.4485 31.0068 50.243 30.688C51.0375 30.3691 51.7556 29.8858 52.3501 29.2698C53.4002 28.1162 53.9598 26.599 53.9101 25.0398C53.9137 24.6645 53.8836 24.2897 53.8201 23.9198H47.7401ZM93.0501 25.3198C92.7893 24.5526 92.3016 23.8826 91.6516 23.3987C91.0016 22.9147 90.2199 22.6396 89.4101 22.6098C88.8631 22.6088 88.3217 22.7199 87.8193 22.9364C87.317 23.1528 86.8644 23.47 86.4895 23.8684C86.1146 24.2667 85.8254 24.7377 85.6397 25.2522C85.4541 25.7667 85.3759 26.3139 85.4101 26.8598C85.4016 27.7727 85.6885 28.6638 86.2282 29.4001C86.7679 30.1364 87.5313 30.6783 88.4044 30.945C89.2774 31.2116 90.2134 31.1887 91.0723 30.8795C91.9313 30.5704 92.6672 29.9917 93.1701 29.2298L91.7201 28.2298C91.5039 28.5901 91.1974 28.8876 90.8307 29.0928C90.4641 29.2981 90.0502 29.4039 89.6301 29.3998C89.1967 29.4177 88.768 29.3041 88.4003 29.0739C88.0327 28.8436 87.7432 28.5076 87.5701 28.1098L93.2601 25.7598L93.0501 25.3198ZM87.2501 26.7398C87.2298 26.4297 87.2718 26.1187 87.3736 25.825C87.4753 25.5314 87.6348 25.2611 87.8426 25.03C88.0504 24.7989 88.3023 24.6117 88.5835 24.4794C88.8647 24.3472 89.1696 24.2725 89.4801 24.2598C89.8012 24.2393 90.1213 24.3136 90.4005 24.4737C90.6796 24.6337 90.9056 24.8723 91.0501 25.1598L87.2501 26.7398ZM82.6301 30.8598H84.5001V18.3598H82.6301V30.8598ZM79.5701 23.5598H79.5001C79.2162 23.2508 78.8694 23.0061 78.483 22.8422C78.0966 22.6784 77.6796 22.5991 77.2601 22.6098C76.1673 22.6628 75.1367 23.1342 74.3821 23.9264C73.6274 24.7186 73.2064 25.7707 73.2064 26.8648C73.2064 27.9589 73.6274 29.0111 74.3821 29.8032C75.1367 30.5954 76.1673 31.0668 77.2601 31.1198C77.6841 31.1283 78.1047 31.0431 78.4919 30.8702C78.8791 30.6974 79.2234 30.4411 79.5001 30.1198H79.5701V30.7298C79.5701 32.3598 78.7001 33.2298 77.3001 33.2298C76.8324 33.2195 76.3783 33.0705 75.9955 32.8017C75.6127 32.5328 75.3185 32.1563 75.1501 31.7198L73.5301 32.3898C73.8296 33.1421 74.3504 33.7857 75.0235 34.2357C75.6966 34.6856 76.4905 34.9207 77.3001 34.9098C79.4901 34.9098 81.3001 33.6198 81.3001 30.4798V22.8598H79.5701V23.5598ZM77.4201 29.4398C76.7649 29.399 76.1499 29.1099 75.7004 28.6315C75.2509 28.1531 75.0006 27.5213 75.0006 26.8648C75.0006 26.2084 75.2509 25.5766 75.7004 25.0982C76.1499 24.6197 76.7649 24.3307 77.4201 24.2898C77.7403 24.3036 78.0545 24.3817 78.344 24.5195C78.6334 24.6572 78.8922 24.8517 79.1049 25.0915C79.3176 25.3313 79.4799 25.6114 79.5822 25.9152C79.6844 26.219 79.7245 26.5402 79.7001 26.8598C79.7274 27.1805 79.6893 27.5034 79.5883 27.809C79.4872 28.1145 79.3252 28.3964 79.1121 28.6376C78.8989 28.8788 78.6391 29.0742 78.3483 29.2121C78.0575 29.35 77.7417 29.4275 77.4201 29.4398ZM101.81 18.3598H97.3301V30.8598H99.2001V26.1198H101.81C102.343 26.1581 102.878 26.0862 103.382 25.9085C103.886 25.7309 104.348 25.4514 104.739 25.0873C105.13 24.7233 105.442 24.2826 105.655 23.7927C105.869 23.3027 105.979 22.7741 105.979 22.2398C105.979 21.7055 105.869 21.1769 105.655 20.687C105.442 20.1971 105.13 19.7564 104.739 19.3923C104.348 19.0283 103.886 18.7487 103.382 18.5711C102.878 18.3935 102.343 18.3215 101.81 18.3598ZM101.81 24.3598H99.2001V20.0998H101.85C102.418 20.0998 102.962 20.3253 103.363 20.7266C103.765 21.1279 103.99 21.6723 103.99 22.2398C103.99 22.8074 103.765 23.3517 103.363 23.753C102.962 24.1544 102.418 24.3798 101.85 24.3798L101.81 24.3598ZM113.35 22.5698C112.669 22.5278 111.991 22.6864 111.399 23.0258C110.807 23.3653 110.328 23.8708 110.02 24.4798L111.67 25.1698C111.837 24.8692 112.087 24.6233 112.39 24.4618C112.694 24.3004 113.038 24.2302 113.38 24.2598C113.617 24.2321 113.858 24.2519 114.088 24.3181C114.317 24.3844 114.531 24.4957 114.718 24.6455C114.904 24.7954 115.058 24.9808 115.172 25.191C115.286 25.4012 115.356 25.632 115.38 25.8698V25.9898C114.779 25.6737 114.109 25.509 113.43 25.5098C111.65 25.5098 109.83 26.5098 109.83 28.3298C109.848 28.7167 109.943 29.096 110.11 29.4454C110.277 29.7947 110.513 30.1069 110.803 30.3634C111.093 30.62 111.432 30.8156 111.799 30.9386C112.166 31.0617 112.554 31.1097 112.94 31.0798C113.409 31.1058 113.877 31.0065 114.295 30.7921C114.714 30.5777 115.067 30.256 115.32 29.8598H115.38V30.8598H117.18V26.0498C117.18 23.8598 115.52 22.5898 113.39 22.5898L113.35 22.5698ZM113.12 29.4198C112.51 29.4198 111.66 29.1098 111.66 28.3598C111.66 27.3598 112.72 27.0198 113.66 27.0198C114.254 27.0052 114.841 27.1502 115.36 27.4398C115.297 27.9829 115.04 28.4848 114.635 28.8525C114.231 29.2203 113.707 29.4289 113.16 29.4398L113.12 29.4198ZM123.74 22.8598L121.6 28.2798H121.54L119.32 22.8598H117.32L120.65 30.4398L118.75 34.6498H120.75L125.82 22.8598H123.74ZM106.94 30.8598H108.8V18.3598H106.94V30.8598Z" fill="white"/>
<path d="M10.4399 8.39959C10.1212 8.79364 9.96391 9.29403 9.99994 9.79959V31.9196C9.96591 32.43 10.1348 32.9332 10.4699 33.3196L10.5399 33.3996L22.8999 21.0096V20.7096L10.5099 8.32959L10.4399 8.39959Z" fill="url(#paint0_linear_1_1950)"/>
<path d="M26.9999 25.1396L22.8999 21.0096V20.7096L26.9999 16.5796L27.0899 16.6396L31.9999 19.4196C33.3999 20.2096 33.3999 21.5096 31.9999 22.3096L27.1099 25.0896L26.9999 25.1396Z" fill="url(#paint1_linear_1_1950)"/>
<path d="M27.1199 25.0899L22.8999 20.8599L10.4399 33.3199C10.7225 33.5714 11.0842 33.7161 11.4623 33.7289C11.8404 33.7417 12.211 33.6218 12.5099 33.3899L27.1199 25.0899Z" fill="url(#paint2_linear_1_1950)"/>
<path d="M27.1199 16.6404L12.5099 8.34032C12.213 8.10523 11.8426 7.98237 11.464 7.99335C11.0854 8.00432 10.7228 8.14843 10.4399 8.40032L22.8999 20.8604L27.1199 16.6404Z" fill="url(#paint3_linear_1_1950)"/>
<path opacity="0.2" d="M26.9999 24.9897L12.5099 33.2397C12.2219 33.4571 11.8708 33.5747 11.5099 33.5747C11.1491 33.5747 10.798 33.4571 10.5099 33.2397L10.4399 33.3097L10.5099 33.3897C10.798 33.6071 11.1491 33.7247 11.5099 33.7247C11.8708 33.7247 12.2219 33.6071 12.5099 33.3897L27.1199 25.0897L26.9999 24.9897Z" fill="black"/>
<path opacity="0.12" d="M10.4399 33.18C10.1187 32.7833 9.96126 32.2789 9.99988 31.77V31.92C9.96585 32.4303 10.1348 32.9335 10.4699 33.32L10.5399 33.25L10.4399 33.18Z" fill="black"/>
<path opacity="0.12" d="M32 22.1599L27 24.9899L27.09 25.0899L32 22.2999C32.2898 22.1773 32.5413 21.9789 32.7278 21.7255C32.9143 21.4721 33.0291 21.1731 33.06 20.8599C32.9975 21.1445 32.869 21.4104 32.6849 21.6362C32.5007 21.862 32.2662 22.0414 32 22.1599Z" fill="black"/>
<path opacity="0.25" d="M12.51 8.47984L32 19.5599C32.2662 19.6784 32.5007 19.8578 32.6849 20.0836C32.869 20.3094 32.9975 20.5753 33.06 20.8599C33.0291 20.5467 32.9143 20.2477 32.7278 19.9943C32.5413 19.7409 32.2898 19.5424 32 19.4199L12.51 8.33984C11.12 7.53984 10 8.19984 10 9.79984V9.94984C10 8.34984 11.12 7.68984 12.51 8.47984Z" fill="white"/>
<defs>
<linearGradient id="paint0_linear_1_1950" x1="21.7999" y1="9.56959" x2="5.01993" y2="26.3496" gradientUnits="userSpaceOnUse">
<stop stop-color="#00A0FF"/>
<stop offset="0.01" stop-color="#00A1FF"/>
<stop offset="0.26" stop-color="#00BEFF"/>
<stop offset="0.51" stop-color="#00D2FF"/>
<stop offset="0.76" stop-color="#00DFFF"/>
<stop offset="1" stop-color="#00E3FF"/>
</linearGradient>
<linearGradient id="paint1_linear_1_1950" x1="33.8299" y1="20.8596" x2="9.6399" y2="20.8596" gradientUnits="userSpaceOnUse">
<stop stop-color="#FFE000"/>
<stop offset="0.41" stop-color="#FFBD00"/>
<stop offset="0.78" stop-color="#FFA500"/>
<stop offset="1" stop-color="#FF9C00"/>
</linearGradient>
<linearGradient id="paint2_linear_1_1950" x1="24.8299" y1="23.1599" x2="2.06995" y2="45.9099" gradientUnits="userSpaceOnUse">
<stop stop-color="#FF3A44"/>
<stop offset="1" stop-color="#C31162"/>
</linearGradient>
<linearGradient id="paint3_linear_1_1950" x1="7.29995" y1="1.04032" x2="17.4599" y2="11.2004" gradientUnits="userSpaceOnUse">
<stop stop-color="#32A071"/>
<stop offset="0.07" stop-color="#2DA771"/>
<stop offset="0.48" stop-color="#15CF74"/>
<stop offset="0.8" stop-color="#06E775"/>
<stop offset="1" stop-color="#00F076"/>
</linearGradient>
</defs>
</svg>
