<svg width="501" height="384" viewBox="0 0 501 384" fill="none" xmlns="http://www.w3.org/2000/svg">
<mask id="mask0_1_685" style="mask-type:luminance" maskUnits="userSpaceOnUse" x="0" y="0" width="501" height="384">
<path d="M500.5 0.556152H0.5V383.554H500.5V0.556152Z" fill="white"/>
</mask>
<g mask="url(#mask0_1_685)">
<g opacity="0.8">
<path d="M238.881 4.63379C143.155 4.63379 64.1057 76.5949 52.9521 169.364L5.63043 192.015L52.9521 214.665C64.1057 307.543 143.155 379.395 238.881 379.395C342.296 379.395 426.218 295.513 426.218 191.906C426.218 88.2995 342.405 4.63379 238.881 4.63379Z" fill="#DCFFEB"/>
</g>
<mask id="mask1_1_685" style="mask-type:alpha" maskUnits="userSpaceOnUse" x="5" y="4" width="422" height="376">
<path d="M238.881 4.63379C143.155 4.63379 64.1057 76.5949 52.9521 169.364L5.63043 192.015L52.9521 214.665C64.1057 307.543 143.155 379.395 238.881 379.395C342.296 379.395 426.218 295.513 426.218 191.906C426.218 88.2995 342.405 4.63379 238.881 4.63379Z" fill="#DCFFEB"/>
</mask>
<g mask="url(#mask1_1_685)">
<mask id="mask2_1_685" style="mask-type:luminance" maskUnits="userSpaceOnUse" x="0" y="31" width="501" height="384">
<path d="M0.5 31.1956H500.5V414.194H0.5V31.1956Z" fill="white"/>
</mask>
<g mask="url(#mask2_1_685)">
<path d="M232.611 291.543C160.922 291.543 99.2616 333.322 71.8828 394.218H393.301C365.922 333.322 304.262 291.543 232.611 291.543Z" fill="#3C0077"/>
<path d="M215.299 237.386L208.397 297.178C208.397 297.178 235.09 368.32 275.014 297.178L267.159 237.386H215.299Z" fill="#A376D3"/>
<path d="M264.948 228.245C267.464 234.225 268.075 246.488 269.029 252.162C269.029 252.162 240.734 254.066 234.442 244.926C231.925 241.155 231.315 235.786 233.184 231.406C238.56 221.619 260.562 217.848 264.948 228.245Z" fill="#511B7B"/>
<path d="M285.043 121.534C282.831 99.4833 264.605 81.8879 241.992 81.8879C219.38 81.8879 200.809 99.2165 198.94 121.534H198.635V198.35H198.94C198.94 199.302 198.635 200.559 198.635 201.51C198.635 225.733 218.121 245.27 242.297 245.27C266.511 245.27 285.959 225.771 285.959 201.51C285.959 200.254 285.653 199.302 285.653 198.35H285.959V121.534H285.043Z" fill="#A376D3"/>
<path d="M203.059 149.868C202.754 144.841 198.673 141.071 193.64 141.071C188.607 141.071 184.527 144.841 184.222 149.868V166.854V167.502C184.222 172.871 188.607 177.251 193.946 177.251C199.283 177.251 203.669 172.833 203.669 167.502V166.854L203.059 149.868Z" fill="#A376D3"/>
<path d="M300.449 149.868C300.144 144.841 296.064 141.071 291.03 141.071C285.997 141.071 281.917 144.841 281.612 149.868V166.854V167.502C281.612 172.871 285.997 177.251 291.335 177.251C296.673 177.251 301.059 172.833 301.059 167.502V166.854L300.449 149.868Z" fill="#A376D3"/>
<path d="M241.992 167.158C241.458 167.158 241.039 166.739 241.039 166.207V137.568C241.039 137.034 241.458 136.615 241.992 136.615C242.526 136.615 242.945 137.034 242.945 137.568V166.207C242.945 166.739 242.526 167.158 241.992 167.158Z" fill="#3C0077"/>
<path d="M252.707 146.098C251.639 146.098 250.8 145.261 250.8 144.195V141.985C250.8 140.957 251.639 140.082 252.707 140.082C253.775 140.082 254.614 140.919 254.614 141.985V144.195C254.614 145.261 253.736 146.098 252.707 146.098Z" fill="#3C0077"/>
<path d="M231.01 146.098C229.942 146.098 229.103 145.261 229.103 144.195V141.985C229.103 140.957 229.942 140.082 231.01 140.082C232.077 140.082 232.916 140.919 232.916 141.985V144.195C232.916 145.261 232.077 146.098 231.01 146.098Z" fill="#3C0077"/>
<path d="M245.462 59.1897C236.043 48.488 224.413 43.1561 219.074 47.574C214.689 51.0397 215.604 59.5324 220.332 68.9773C217.511 68.0252 214.689 67.073 211.524 66.4637C197.682 63.6456 185.441 66.7684 184.183 73.3951C183.229 78.4221 188.568 83.7919 197.072 87.2576C196.766 87.2576 196.461 87.5623 196.461 87.5623C176.366 95.4459 161.914 107.404 164.392 113.992C166.909 120.62 185.441 119.362 205.88 111.479C216.862 107.062 225.976 101.729 231.658 96.7021C228.836 101.729 227.882 106.452 230.399 108.661C233.869 112.127 242.03 108.965 248.932 102.035C253.012 97.9591 255.529 93.5416 256.482 89.7714C258.999 90.0759 260.867 90.4187 262.125 90.4187C269.675 91.3704 275.014 98.3021 275.014 98.3021C272.498 83.1447 253.012 65.5116 245.462 59.1897Z" fill="#461070"/>
<path d="M274.71 98.8737H254.919C254.386 98.8737 253.966 98.4547 253.966 97.922C253.966 97.3885 254.386 96.9695 254.919 96.9695H274.71C275.244 96.9695 275.664 97.3885 275.664 97.922C275.664 98.4547 275.206 98.8737 274.71 98.8737Z" fill="#3C0077"/>
<path d="M278.141 103.595H261.477C260.944 103.595 260.524 103.177 260.524 102.644C260.524 102.111 260.944 101.692 261.477 101.692H278.141C278.675 101.692 279.094 102.111 279.094 102.644C279.094 103.177 278.675 103.595 278.141 103.595Z" fill="#3C0077"/>
<path d="M280.658 108.318H267.158C266.625 108.318 266.206 107.899 266.206 107.367C266.206 106.833 266.625 106.414 267.158 106.414H280.658C281.192 106.414 281.611 106.833 281.611 107.367C281.611 107.899 281.192 108.318 280.658 108.318Z" fill="#3C0077"/>
<path d="M282.869 113.041H276.577C276.043 113.041 275.623 112.622 275.623 112.089C275.623 111.556 276.043 111.137 276.577 111.137H282.869C283.403 111.137 283.822 111.556 283.822 112.089C283.822 112.622 283.403 113.041 282.869 113.041Z" fill="#3C0077"/>
<path d="M223.764 190.161H259.571C259.571 190.161 261.439 208.747 241.648 208.099C221.896 207.795 223.764 190.161 223.764 190.161Z" fill="white"/>
<path d="M299.785 179.832H285.275V139.95H299.785C306.716 139.95 312.347 145.585 312.347 152.521V167.369C312.347 174.197 306.716 179.832 299.785 179.832Z" fill="#5F36A8"/>
<path d="M262.749 206.784H246.506C246.073 206.784 245.639 206.351 245.639 205.917C245.639 205.484 246.073 205.05 246.506 205.05H254.627H262.749C275.31 205.05 285.489 185.91 285.489 173.338V164.235C285.489 163.801 285.922 163.368 286.355 163.368C286.789 163.368 287.222 163.801 287.222 164.235V173.338C287.222 186.885 276.285 206.784 262.749 206.784Z" fill="#5F36A8"/>
<path d="M245.426 213.799H232.649C229.942 213.799 227.668 211.631 227.668 208.813V202.961C227.668 200.252 229.834 197.976 232.649 197.976H245.426C248.134 197.976 250.408 200.143 250.408 202.961V208.813C250.3 211.523 248.134 213.799 245.426 213.799Z" fill="#5F36A8"/>
<path d="M291.774 139.95H290.042V179.832H291.774V139.95Z" fill="#9C79CD"/>
</g>
</g>
<path d="M309.323 51.4695C306.356 51.4695 303.951 53.8747 303.951 56.8414V124.497C303.951 127.463 306.356 129.869 309.323 129.869H361.237C361.516 139.086 353.418 145.228 349.24 147.178C361.801 147.178 372.491 137.83 378.858 129.869H489.994C492.961 129.869 495.366 127.463 495.366 124.496V56.8414C495.366 53.8747 492.961 51.4695 489.994 51.4695H309.323Z" fill="#1DCAEE"/>
<path d="M380.135 77.4834H386.065V100.432H380.135V91.1494H370.852V100.432H364.922V77.4834H370.852V86.4116H380.135V77.4834Z" fill="white"/>
<path d="M404.992 92.8262H394.71C394.817 94.0939 395.182 95.0072 395.806 95.566C396.429 96.1246 397.342 96.404 398.545 96.404C399.362 96.404 400.178 96.2749 400.995 96.0171C401.811 95.7377 402.553 95.3618 403.219 94.889L404.701 98.7567C403.885 99.3584 402.896 99.8312 401.736 100.175C400.576 100.519 399.416 100.691 398.255 100.691C396.386 100.691 394.764 100.347 393.388 99.6592C392.013 98.9716 390.96 97.994 390.23 96.7263C389.499 95.4369 389.134 93.922 389.134 92.1814C389.134 90.5269 389.477 89.0551 390.165 87.7659C390.874 86.4551 391.841 85.4344 393.066 84.7039C394.312 83.9733 395.73 83.6079 397.32 83.6079C398.867 83.6079 400.221 83.9518 401.382 84.6395C402.542 85.327 403.434 86.3155 404.057 87.6047C404.68 88.8724 404.992 90.3551 404.992 92.0526V92.8262ZM397.482 87.6047C396.042 87.6047 395.14 88.4426 394.774 90.1186H399.996C399.781 88.4426 398.943 87.6047 397.482 87.6047Z" fill="white"/>
<path d="M407.69 76.71H413.524V100.432H407.69V76.71Z" fill="white"/>
<path d="M417.007 76.71H422.84V100.432H417.007V76.71Z" fill="white"/>
<path d="M434.575 100.691C432.749 100.691 431.159 100.347 429.805 99.6592C428.451 98.9716 427.409 97.9831 426.679 96.6939C425.948 95.4047 425.583 93.8898 425.583 92.1493C425.583 90.4088 425.948 88.8938 426.679 87.6047C427.409 86.3153 428.451 85.327 429.805 84.6393C431.159 83.9518 432.749 83.6079 434.575 83.6079C436.381 83.6079 437.949 83.9626 439.281 84.6715C440.635 85.3592 441.677 86.3477 442.408 87.6368C443.138 88.9045 443.503 90.4088 443.503 92.1493C443.503 93.8898 443.138 95.4047 442.408 96.6939C441.677 97.9618 440.635 98.9501 439.281 99.6592C437.949 100.347 436.381 100.691 434.575 100.691ZM434.575 96.3394C436.681 96.3394 437.734 94.9426 437.734 92.1493C437.734 90.731 437.466 89.6889 436.928 89.0227C436.413 88.3352 435.629 87.9915 434.575 87.9915C433.501 87.9915 432.696 88.3352 432.158 89.0227C431.621 89.6889 431.352 90.731 431.352 92.1493C431.352 93.589 431.621 94.6525 432.158 95.3402C432.696 96.0064 433.501 96.3394 434.575 96.3394Z" fill="white"/>
</g>
</svg>
