<svg width="16" height="13" viewBox="0 0 16 13" fill="none" xmlns="http://www.w3.org/2000/svg">
<path d="M6.9925 8.52867C6.5389 8.52867 6.2732 8.27597 6.2732 7.82237V7.29757C4.3683 7.16797 2.4698 6.77927 0.5 6.03407V4.96497C2.9233 6.02757 5.3531 6.40337 7.9968 6.40337C10.6469 6.40337 13.0767 6.02757 15.5 4.96497V6.03407C13.5302 6.77927 11.6318 7.16797 9.7268 7.29757V7.82237C9.7268 8.27597 9.4612 8.52867 9.0076 8.52867H6.9925ZM2.5022 12.8376H13.4979C14.8392 12.8376 15.5 12.1897 15.5 10.8613V4.55677C15.5 3.22847 14.8392 2.58047 13.4979 2.58047H2.5022C1.1674 2.58047 0.5 3.22847 0.5 4.55677V10.8613C0.5 12.1897 1.1674 12.8376 2.5022 12.8376ZM4.7117 3.14417H5.716V1.99737C5.716 1.50487 6.0076 1.22627 6.513 1.22627H9.487C9.9925 1.22627 10.2776 1.50487 10.2776 1.99737V3.13127H11.2819V2.06857C11.2819 0.850473 10.6404 0.280273 9.4676 0.280273H6.5259C5.4179 0.280273 4.7117 0.850473 4.7117 2.06857V3.14417Z" fill="#40196D"/>
</svg>
